<svg width="8" height="13" viewBox="0 0 8 13" fill="none" xmlns="http://www.w3.org/2000/svg">
<path d="M7.08501 10.9843C7.25727 11.154 7.3539 11.3832 7.3539 11.6221C7.3539 11.8609 7.25727 12.0901 7.08501 12.2598C7.00042 12.3436 6.8996 12.4102 6.7884 12.4556C6.6772 12.501 6.55786 12.5244 6.4373 12.5244C6.31675 12.5244 6.19741 12.501 6.08621 12.4556C5.97501 12.4102 5.87419 12.3436 5.7896 12.2598L0.669462 7.16284C0.497444 6.99273 0.401001 6.76338 0.401001 6.52441C0.401001 6.28545 0.497444 6.0561 0.669462 5.88599L5.7896 0.788997C5.87419 0.705199 5.97501 0.638653 6.08621 0.593229C6.19741 0.547806 6.31675 0.524414 6.4373 0.524414C6.55786 0.524414 6.6772 0.547806 6.7884 0.593229C6.8996 0.638653 7.00042 0.705199 7.08501 0.788997C7.25727 0.958724 7.3539 1.18792 7.3539 1.42677C7.3539 1.66562 7.25727 1.89482 7.08501 2.06455L2.88596 6.52637L7.08501 10.9843Z" fill="#005AAB"/>
</svg>
