<svg width="18" height="18" viewBox="0 0 18 18" fill="none" xmlns="http://www.w3.org/2000/svg">
<path d="M0.000517884 8.998C0.000900608 7.01663 0.655136 5.09076 1.86174 3.51915C3.06834 1.94754 4.75985 0.818048 6.67388 0.305876C8.58791 -0.206295 10.6175 -0.0725094 12.4477 0.686478C14.2779 1.44547 15.8066 2.78723 16.7964 4.50362C17.7863 6.22002 18.182 8.2151 17.9223 10.1794C17.6626 12.1437 16.762 13.9673 15.36 15.3675C13.9581 16.7677 12.1333 17.666 10.1687 17.9233C8.20413 18.1805 6.20954 17.7823 4.49439 16.7903L0.987489 17.9602C0.857926 18.0035 0.71901 18.0105 0.585732 17.9806C0.452455 17.9507 0.329877 17.885 0.23123 17.7905C0.132582 17.696 0.0616103 17.5764 0.0259738 17.4445C-0.00966268 17.3127 -0.00861039 17.1736 0.0290171 17.0423L1.09699 13.3059C0.375531 11.9848 -0.00155678 10.5033 0.000517884 8.998ZM9.00025 1.49822C7.67606 1.49814 6.37546 1.84866 5.23065 2.51415C4.08583 3.17964 3.13763 4.13638 2.48242 5.28711C1.82721 6.43784 1.48836 7.74153 1.50031 9.06567C1.51225 10.3898 1.87458 11.6872 2.55044 12.8259C2.60244 12.9139 2.63592 13.0115 2.64882 13.1129C2.66171 13.2143 2.65376 13.3172 2.62544 13.4154L1.86196 16.0853L4.34889 15.2573C4.45451 15.2221 4.56665 15.2108 4.67717 15.2243C4.7877 15.2378 4.89383 15.2757 4.98787 15.3353C5.97075 15.9573 7.08483 16.3422 8.24207 16.4595C9.3993 16.5769 10.568 16.4234 11.6557 16.0113C12.7434 15.5992 13.7203 14.9397 14.5093 14.085C15.2983 13.2303 15.8776 12.2038 16.2016 11.0867C16.5255 9.96954 16.5852 8.79236 16.3758 7.64819C16.1665 6.50401 15.6939 5.42422 14.9953 4.49415C14.2968 3.56408 13.3915 2.80923 12.3511 2.28927C11.3106 1.76931 10.1634 1.49849 9.00025 1.49822V1.49822Z" fill="#005AAB"/>
</svg>
