<svg width="20" height="19" viewBox="0 0 20 19" fill="none" xmlns="http://www.w3.org/2000/svg">
<path d="M9.99609 0C4.74963 0 0.496094 4.25353 0.496094 9.5C0.496094 14.7465 4.74963 19 9.99609 19C15.2426 19 19.4961 14.7465 19.4961 9.5C19.4961 4.25353 15.2426 0 9.99609 0ZM9.18448 5.55248L13.2535 8.93822C13.3359 9.0068 13.4023 9.09268 13.4478 9.18977C13.4933 9.28685 13.5169 9.39277 13.5169 9.5C13.5169 9.60723 13.4933 9.71315 13.4478 9.81023C13.4023 9.90732 13.3359 9.9932 13.2535 10.0618L9.18448 13.4475C9.07777 13.5363 8.948 13.5928 8.81035 13.6105C8.6727 13.6281 8.53286 13.6063 8.40719 13.5474C8.28152 13.4885 8.17522 13.395 8.10071 13.278C8.02621 13.1609 7.98659 13.025 7.98648 12.8862V6.1138C7.98659 5.97502 8.02621 5.83914 8.10071 5.72205C8.17522 5.60496 8.28152 5.51151 8.40719 5.45263C8.53286 5.39375 8.6727 5.37187 8.81035 5.38955C8.948 5.40723 9.07777 5.46374 9.18448 5.55248Z" fill="#C4C4C4"/>
</svg>
