<svg width="19" height="16" viewBox="0 0 19 16" fill="none" xmlns="http://www.w3.org/2000/svg">
<path d="M3.40885 0.636719H16.0907C16.7699 0.636674 17.4233 0.896536 17.917 1.363C18.4107 1.82946 18.7072 2.46715 18.7457 3.14526L18.7498 3.29581V12.7049C18.7498 13.3841 18.4899 14.0376 18.0235 14.5313C17.557 15.025 16.9193 15.3214 16.2412 15.3599L16.0907 15.364H3.40885C2.72964 15.364 2.07617 15.1042 1.58248 14.6377C1.08878 14.1713 0.7923 13.5336 0.753847 12.8554L0.749756 12.7049V3.29581C0.749711 2.61661 1.00957 1.96313 1.47603 1.46944C1.94249 0.975746 2.58019 0.679263 3.2583 0.64081L3.40885 0.636719H16.0907H3.40885ZM17.5225 5.46808L10.0328 9.36263C9.9603 9.40033 9.88095 9.42315 9.79946 9.42975C9.71796 9.43636 9.63597 9.42661 9.5583 9.40108L9.46667 9.36263L1.97703 5.46808V12.7049C1.97704 13.0642 2.11217 13.4104 2.35558 13.6748C2.599 13.9391 2.93291 14.1022 3.29103 14.1318L3.40885 14.1367H16.0907C16.4501 14.1367 16.7964 14.0014 17.0608 13.7579C17.3251 13.5143 17.4882 13.1802 17.5176 12.8219L17.5225 12.7049V5.46808ZM16.0907 1.86399H3.40885C3.04951 1.864 2.70331 1.99913 2.43898 2.24255C2.17465 2.48596 2.01151 2.81987 1.98194 3.17799L1.97703 3.29581V4.08454L9.74976 8.12636L17.5225 4.08454V3.29581C17.5225 2.93634 17.3872 2.59004 17.1436 2.32568C16.9 2.06133 16.5659 1.89827 16.2077 1.8689L16.0907 1.86399Z" fill="#0488FF"/>
</svg>
