<svg width="19" height="18" viewBox="0 0 19 18" fill="none" xmlns="http://www.w3.org/2000/svg">
<path d="M9.60059 0C4.63025 0 0.600586 4.02966 0.600586 9C0.600586 13.9703 4.63025 18 9.60059 18C14.5709 18 18.6006 13.9703 18.6006 9C18.6006 4.02966 14.5709 0 9.60059 0ZM8.83169 5.26024L12.6865 8.46779C12.7646 8.53276 12.8275 8.61412 12.8706 8.70609C12.9137 8.79807 12.9361 8.89841 12.9361 9C12.9361 9.10159 12.9137 9.20193 12.8706 9.29391C12.8275 9.38588 12.7646 9.46724 12.6865 9.53221L8.83169 12.7398C8.7306 12.8238 8.60766 12.8774 8.47725 12.8941C8.34685 12.9109 8.21437 12.8901 8.09531 12.8344C7.97626 12.7786 7.87555 12.69 7.80496 12.5791C7.73438 12.4682 7.69684 12.3395 7.69674 12.208V5.79202C7.69684 5.66054 7.73438 5.53181 7.80496 5.42089C7.87555 5.30996 7.97626 5.22143 8.09531 5.16565C8.21437 5.10986 8.34685 5.08913 8.47725 5.10589C8.60766 5.12264 8.7306 5.17618 8.83169 5.26024Z" fill="#C4C4C4"/>
</svg>
